<?xml version="1.0" encoding="UTF-8" standalone="no"?>
<svg
   id="bubl_app"
   data-name="bubl app"
   viewBox="0 0 1024 1024"
   version="1.1"
   sodipodi:docname="sapiens_rank.svg"
   inkscape:version="1.4.3 (0d15f75, 2025-12-25)"
   xmlns:inkscape="http://www.inkscape.org/namespaces/inkscape"
   xmlns:sodipodi="http://sodipodi.sourceforge.net/DTD/sodipodi-0.dtd"
   xmlns="http://www.w3.org/2000/svg"
   xmlns:svg="http://www.w3.org/2000/svg">
  <sodipodi:namedview
     id="namedview5"
     pagecolor="#ffffff"
     bordercolor="#000000"
     borderopacity="0.25"
     inkscape:showpageshadow="2"
     inkscape:pageopacity="0.0"
     inkscape:pagecheckerboard="0"
     inkscape:deskcolor="#d1d1d1"
     inkscape:zoom="0.428562"
     inkscape:cx="436.34293"
     inkscape:cy="707.01555"
     inkscape:window-width="1690"
     inkscape:window-height="1039"
     inkscape:window-x="356"
     inkscape:window-y="338"
     inkscape:window-maximized="0"
     inkscape:current-layer="g5" />
  <defs
     id="defs1">
    <style
       id="style1">
      .cls-1 {
        fill: #fff;
      }
    </style>
  </defs>
  <g
     id="g5">
    <path
       d="m 390.54571,854.78469 q -65.35113,0 -115.90577,-33.29209 -50.55464,-33.29208 -80.1476,-104.8084 -28.35992,-72.74936 -28.35992,-191.12121 0,-119.60488 32.05904,-198.51944 32.05904,-78.91456 88.77888,-118.37185 57.95288,-39.45728 133.16833,-39.45728 54.25376,0 96.17712,20.96168 41.92336,19.72864 72.74936,66.58417 32.05904,45.62248 50.55464,124.53704 h 7.39824 L 713.6022,181.54482 H 848.00356 L 670.4458,534.19427 q 24.6608,80.14761 40.69032,128.23617 17.26256,48.08856 29.59296,72.74936 12.3304,23.42776 23.42776,32.05904 11.09736,7.39824 23.42776,7.39824 13.56344,0 25.89384,-6.1652 12.3304,-7.39824 23.42776,-13.56344 l 20.96168,51.78768 q -19.72864,16.02952 -48.08856,29.59296 -27.12688,13.56344 -67.8172,13.56344 -29.59296,0 -50.55464,-9.86432 -19.72864,-9.86432 -34.52513,-32.05904 -13.56344,-23.42776 -24.6608,-59.18592 -11.09736,-35.75816 -22.19472,-87.54584 h -4.93216 q -16.02952,53.02072 -45.62248,97.41016 -28.35992,43.1564 -71.51632,70.28328 -41.92336,25.89385 -97.41016,25.89385 z m 9.86432,-78.91457 q 35.75816,0 62.88504,-14.79648 27.12688,-16.02952 48.08856,-45.62248 22.19472,-30.826 41.92336,-73.9824 19.72864,-43.1564 39.45728,-98.6432 -23.42776,-94.94409 -44.38944,-161.52825 -20.96168,-66.58416 -50.55464,-101.10928 -28.35992,-34.52512 -77.68152,-34.52512 -29.59296,0 -54.25376,17.26256 -23.42777,17.26256 -41.92337,50.55464 -18.4956,33.29208 -28.35992,83.84672 -9.86432,50.55464 -9.86432,117.1388 0,87.54585 13.56344,145.49873 13.56344,57.95288 38.22424,87.54584 25.89385,28.35992 62.88505,28.35992 z"
       id="text1"
       style="font-size:1233.04px;font-family:'Noto Serif';-inkscape-font-specification:'Noto Serif';stroke-width:102.753"
       aria-label="α" />
  </g>
</svg>
